          <svg
            width="273"
            height="199"
            viewBox="0 0 273 199"
            fill="none"
            xmlns="http://www.w3.org/2000/svg"
          >
            <path
              d="M6.40264 153.996C2.89766 159.959 -0.580817 166.744 0.0817518 173.873C0.320277 176.444 1.40689 179.677 3.3946 181.215C4.59656 182.13 5.91013 182.89 7.30373 183.474C10.8204 184.964 14.4913 186.059 18.2494 186.74C25.0259 187.994 31.898 188.659 38.789 188.728C49.5317 188.839 60.2702 188.252 70.9369 186.972C84.9876 185.478 98.9295 183.094 112.679 179.836C136.813 173.916 160.07 164.866 181.857 152.916C197.037 144.608 211.945 134.987 224.666 123.167C228.641 119.47 232.743 115.415 235.062 110.426C236.2 108.133 236.798 105.609 236.809 103.049C236.821 100.489 236.245 97.9604 235.128 95.6571C232.995 91.2112 229.37 87.6466 226.057 84.082C223.659 81.4913 221.373 78.8477 219.995 75.5614C218.731 72.5785 218.3 69.3083 218.749 66.0999C219.412 61.7468 221.572 57.7449 224.262 54.3195C228.465 49.126 233.538 44.7026 239.256 41.2469C241.003 40.0982 242.987 39.3598 245.06 39.087C247.352 38.8352 249.751 38.8418 251.984 38.2389C256.94 36.9138 261.061 32.7859 264.009 28.7774C266.958 24.7688 269.681 19.2298 269.217 14.0286C268.847 10.594 267.141 7.44297 264.467 5.25619C256.304 -1.60802 244.272 0.33329 235.234 4.16294C230.059 6.36267 224.408 9.95381 221.585 15.0291C219.902 18.0504 219.988 21.2241 220.26 24.5568C220.379 25.882 220.545 26.7168 219.982 27.8167C219.236 29.1328 218.305 30.3353 217.219 31.3879C214.216 34.3897 210.955 37.1213 207.472 39.5508C203.994 42.0685 200.515 44.5797 196.818 46.7794C193.983 48.4623 191.266 50.0591 187.9 50.2843C184.114 50.5061 180.316 50.1237 176.65 49.1514C176.512 49.1283 176.371 49.157 176.254 49.2319C176.136 49.3068 176.051 49.4226 176.014 49.5569C175.977 49.6912 175.991 49.8345 176.053 49.959C176.115 50.0836 176.222 50.1807 176.352 50.2314C179.982 51.2053 183.825 52.0071 187.615 51.9011C190.988 51.8017 193.664 50.5759 196.56 49.0123C203.848 45.0369 210.964 40.3989 217.1 34.7538C219.207 32.8191 221.897 30.3874 222.645 27.4655C222.983 26.1404 222.692 24.7092 222.592 23.3841C222.426 21.9475 222.447 20.4955 222.652 19.0641C223.533 14.4261 227.84 11.226 231.484 8.76784C234.426 6.78013 238.043 5.50136 241.422 4.52738C244.208 3.70622 247.087 3.24744 249.989 3.16245C256.874 3.01006 266.514 6.34942 266.772 14.605C266.931 19.9056 263.864 25.2989 260.498 29.1815C258.793 31.2042 256.781 32.946 254.535 34.343C252.508 35.5001 250.239 36.1672 247.909 36.2909C245.981 36.483 243.98 36.5162 242.112 37.086C239.541 37.8612 237.228 39.4447 235.068 40.9951C229.973 44.6525 225.13 48.8069 221.433 53.8821C216.894 60.0639 214.562 67.8689 217.232 75.3096C220.015 83.0616 227.171 87.64 231.537 94.3584C234.326 98.6585 235.194 103.442 233.26 108.272C232.124 110.952 230.538 113.418 228.569 115.561C224.582 119.971 220.222 124.027 215.536 127.686C208.927 132.976 202.013 137.874 194.831 142.355C175.574 154.463 154.921 164.194 133.324 171.336C108.22 179.671 81.7633 184.329 55.3731 185.912C46.5488 186.532 37.6911 186.508 28.8704 185.839C23.6202 185.459 18.4191 184.571 13.3398 183.189C10.7953 182.556 8.34495 181.591 6.0515 180.32C5.7666 180.154 5.48168 179.989 5.21003 179.803C5.07751 179.711 4.50772 179.28 4.93839 179.618C3.3681 178.372 2.54651 176.126 2.24173 174.191C1.19487 167.413 4.79924 160.562 8.02595 154.884C8.14144 154.659 8.16635 154.399 8.09558 154.156C8.02481 153.914 7.86375 153.708 7.64553 153.58C7.42731 153.453 7.16854 153.414 6.92254 153.472C6.67654 153.529 6.46202 153.679 6.32314 153.89L6.40264 153.996Z"
              fill="#555555"
            />
            <path
              d="M1.01597 173.714C1.34392 177.421 2.19146 181.063 3.53373 184.534C4.57396 187.184 5.80634 190.371 8.17171 192.054C9.40838 192.848 10.7453 193.475 12.1471 193.916C14.7053 194.812 17.322 195.531 19.9787 196.069C23.897 196.92 27.8647 197.524 31.8585 197.878C38.5741 198.41 45.3146 198.559 52.047 198.322C63.3463 197.942 74.6114 196.867 85.7784 195.102C101.098 192.751 116.241 189.368 131.105 184.978C144.565 181.007 157.706 176.024 170.415 170.07C180.792 165.206 190.831 159.65 200.462 153.44C207.748 148.741 214.762 143.636 221.473 138.148C227.33 133.337 233.233 128.342 237.44 121.961C239.203 119.467 240.034 116.432 239.786 113.387C239.188 108.968 238.203 104.609 236.844 100.361C236.566 99.4139 236.076 98.1284 235.877 97.4327C235.817 97.2186 235.675 97.0368 235.481 96.9272C235.288 96.8175 235.059 96.7889 234.844 96.8476C234.63 96.9062 234.447 97.0474 234.337 97.2403C234.226 97.4331 234.196 97.6619 234.253 97.8767C234.313 98.102 234.353 98.3272 234.446 98.738C234.605 99.4536 234.75 100.176 234.923 100.891C235.446 103.045 236.009 105.185 236.48 107.351C237.182 110.558 238.023 113.977 237.182 117.184C236.704 118.743 235.948 120.202 234.949 121.491C233.274 123.899 231.38 126.148 229.291 128.209C227.303 130.097 225.262 131.893 223.195 133.669C217.254 138.749 211.041 143.502 204.584 147.907C195.838 153.884 186.72 159.297 177.286 164.114C165.572 170.095 153.445 175.227 140.997 179.472C126.5 184.363 111.683 188.246 96.6512 191.093C84.5875 193.462 72.3917 195.1 60.1304 195.996C52.2269 196.586 44.296 196.719 36.3773 196.394C34.1312 196.288 31.8917 196.142 29.6589 195.917C28.9963 195.851 28.3337 195.771 27.6314 195.692L27.1477 195.625L26.7104 195.559C22.4566 194.975 18.2498 194.09 14.1216 192.909C12.496 192.473 10.9246 191.855 9.43724 191.067C7.09837 189.742 5.85275 186.581 4.85227 184.183C3.43869 180.789 2.47422 177.225 1.98334 173.582C1.91046 173.045 0.969601 173.164 1.02261 173.714H1.01597Z"
              fill="#555555"
            />
            <path
              d="M219.458 76.8666C219.803 75.3493 220.313 73.8784 220.783 72.4009C221.254 70.9234 221.771 69.373 222.427 67.9088C224.288 63.6822 226.968 59.8665 230.313 56.6821C233.657 53.4978 237.6 51.0081 241.913 49.3568C245.106 48.151 248.446 47.5877 251.765 46.8457C254.929 46.1864 257.98 45.0704 260.823 43.5328C263.677 41.8843 266.158 39.6622 268.111 37.0065C269.999 34.5285 271.662 31.812 272.311 28.7244C272.615 26.9007 272.545 25.0343 272.106 23.2383C271.795 21.6283 271.443 20.0249 271.033 18.448C270.045 14.7496 268.661 11.1686 266.905 7.76737C266.242 6.56812 264.493 7.62821 265.096 8.82746C266.608 11.8458 267.843 14.9948 268.787 18.2359C269.191 19.6273 269.555 21.0386 269.9 22.4498C270.39 24.0295 270.614 25.6798 270.562 27.333C270.297 30.4139 268.508 33.2564 266.699 35.6615C264.815 38.3139 262.338 40.4896 259.464 42.0155C253.561 45.0236 246.769 44.9043 240.66 47.3161C234.976 49.5118 229.931 53.0946 225.985 57.7383C223.741 60.4229 221.889 63.4121 220.485 66.6167C219.795 68.1753 219.221 69.7832 218.769 71.427C218.376 73.1545 218.154 74.9167 218.107 76.6878C218.082 76.8635 218.128 77.0418 218.235 77.1834C218.342 77.3251 218.501 77.4184 218.676 77.4431C218.852 77.4677 219.03 77.4215 219.172 77.3146C219.314 77.2078 219.407 77.049 219.432 76.8733L219.458 76.8666Z"
              fill="#555555"
            />
            <path
              d="M244.576 14.2075C243.328 14.2881 242.108 14.6195 240.99 15.1818C239.872 15.7442 238.879 16.5259 238.07 17.4805C237.663 17.9596 237.36 18.5178 237.18 19.12C236.999 19.7221 236.946 20.3551 237.023 20.9789C237.12 21.5923 237.377 22.1693 237.768 22.652C238.159 23.1347 238.669 23.506 239.249 23.7286C241.515 24.7224 244.417 25.0007 246.332 23.1522C247.211 22.2291 247.945 21.1794 248.512 20.0381C249.162 18.9704 249.436 17.715 249.287 16.4735C249.187 15.8234 248.901 15.2161 248.464 14.7247C248.026 14.2334 247.456 13.8789 246.822 13.7039C246.183 13.5125 245.51 13.4578 244.848 13.5434C244.186 13.629 243.549 13.853 242.979 14.2009C242.856 14.287 242.762 14.4093 242.711 14.5511C242.659 14.6928 242.653 14.8469 242.693 14.9923C242.733 15.1376 242.817 15.2669 242.934 15.3625C243.05 15.4581 243.194 15.5152 243.344 15.526C244.669 15.6784 246.862 14.6779 247.452 16.4867C247.659 17.3031 247.54 18.1682 247.121 18.8984C246.672 19.7735 246.12 20.5921 245.477 21.3367C244.238 22.7679 242.469 22.7414 240.773 22.2378C240.011 22.0125 239.15 21.7276 238.885 20.9127C238.794 20.528 238.79 20.1278 238.874 19.7415C238.957 19.3551 239.126 18.9924 239.369 18.6798C240.694 16.938 242.581 15.707 244.709 15.1947C245.252 15.0556 245.159 14.1412 244.576 14.2009V14.2075Z"
              fill="#555555"
            />
            <path
              d="M8.2976 183.103C8.03257 184.353 7.72118 185.596 7.36339 186.833C7.1845 187.449 6.99236 188.059 6.78696 188.668C6.54837 189.246 6.4289 189.866 6.43578 190.491C6.4362 190.539 6.45083 190.586 6.4778 190.626C6.50476 190.666 6.5429 190.697 6.58743 190.715C6.63196 190.733 6.68089 190.738 6.72816 190.729C6.77543 190.72 6.81893 190.697 6.8532 190.663C7.25024 190.2 7.53988 189.654 7.70131 189.066C7.90671 188.404 8.09222 187.794 8.27111 187.151C8.62006 185.901 8.92042 184.631 9.17219 183.341C9.28483 182.772 8.42349 182.527 8.2976 183.103Z"
              fill="#555555"
            />
            <path
              d="M12.9952 184.402C12.4784 185.641 11.9417 186.873 11.4448 188.125C10.9116 189.352 10.4688 190.617 10.1197 191.908C10.0923 192.012 10.103 192.121 10.1499 192.217C10.1967 192.313 10.2765 192.389 10.3747 192.431C10.4729 192.473 10.5828 192.478 10.6844 192.445C10.7861 192.412 10.8725 192.344 10.928 192.253C11.5414 191.039 12.0705 189.783 12.5116 188.496C12.9886 187.224 13.4259 185.932 13.8764 184.647C14.0818 184.077 13.2139 183.865 12.9886 184.402H12.9952Z"
              fill="#555555"
            />
            <path
              d="M17.9579 185.713C17.5206 186.926 16.9972 188.085 16.4671 189.258C16.2021 189.841 15.9238 190.418 15.6256 190.988C15.3545 191.55 15.1328 192.136 14.9631 192.737C14.9469 192.796 14.9506 192.859 14.9737 192.915C14.9968 192.972 15.038 193.019 15.0908 193.05C15.1436 193.081 15.2052 193.094 15.266 193.086C15.3267 193.079 15.3833 193.051 15.4269 193.008C15.8892 192.523 16.2797 191.974 16.5864 191.378C16.8713 190.809 17.1495 190.232 17.4079 189.649C17.9316 188.434 18.3742 187.186 18.7331 185.912C18.7594 185.817 18.747 185.716 18.6986 185.63C18.6501 185.544 18.5696 185.481 18.4747 185.455C18.3798 185.429 18.2783 185.441 18.1926 185.49C18.1069 185.538 18.0439 185.619 18.0175 185.713H17.9579Z"
              fill="#555555"
            />
            <path
              d="M24.0071 186.966C23.2518 188.119 22.4832 189.265 21.7544 190.438L20.6678 192.193C20.2668 192.742 19.9497 193.347 19.7269 193.989C19.7066 194.066 19.7119 194.147 19.7419 194.22C19.7719 194.294 19.8251 194.355 19.8932 194.396C19.9614 194.436 20.0409 194.453 20.1197 194.444C20.1985 194.436 20.2723 194.401 20.3299 194.347C20.7992 193.852 21.1943 193.292 21.5026 192.684L22.576 190.915C23.2849 189.735 23.9541 188.529 24.6366 187.33C24.6849 187.242 24.6963 187.139 24.6684 187.043C24.6404 186.946 24.5753 186.865 24.4875 186.817C24.3996 186.768 24.2962 186.757 24.1999 186.785C24.1036 186.813 24.0223 186.878 23.974 186.966H24.0071Z"
              fill="#555555"
            />
            <path
              d="M29.9437 188.099C29.1555 189.037 28.4337 190.028 27.7838 191.067C27.4657 191.577 27.1609 192.094 26.876 192.624C26.543 193.156 26.3179 193.748 26.2135 194.367C26.2113 194.444 26.2332 194.521 26.2762 194.586C26.3192 194.651 26.3812 194.701 26.4538 194.729C26.5263 194.757 26.6058 194.763 26.6814 194.744C26.757 194.725 26.825 194.684 26.876 194.625C27.0547 194.425 27.2061 194.202 27.3266 193.962C27.4724 193.697 27.6181 193.439 27.7573 193.167C28.0157 192.644 28.3006 192.134 28.5987 191.63C29.1937 190.629 29.8579 189.67 30.5864 188.761C30.6313 188.719 30.6671 188.667 30.6915 188.61C30.7159 188.553 30.7286 188.492 30.7286 188.43C30.7286 188.368 30.7159 188.307 30.6915 188.25C30.6671 188.193 30.6313 188.141 30.5864 188.099C30.5034 188.017 30.3915 187.971 30.275 187.971C30.1585 187.971 30.0466 188.017 29.9636 188.099H29.9437Z"
              fill="#555555"
            />
            <path
              d="M35.8472 187.933C35.284 189.066 34.648 190.153 33.9854 191.246C33.3228 192.339 32.594 193.346 31.9977 194.44C31.9566 194.519 31.9447 194.611 31.964 194.698C31.9833 194.786 32.0326 194.864 32.1034 194.919C32.1741 194.974 32.2619 195.003 32.3515 195C32.4411 194.997 32.5269 194.963 32.594 194.903C33.51 193.973 34.2987 192.926 34.9395 191.789C35.5959 190.664 36.1695 189.493 36.6556 188.284C36.8345 187.84 36.0924 187.529 35.8737 187.953L35.8472 187.933Z"
              fill="#555555"
            />
            <path
              d="M43.1024 188.563C42.2693 189.546 41.5097 190.589 40.8298 191.683C40.4985 192.22 40.1672 192.77 39.8955 193.326C39.7406 193.611 39.6205 193.914 39.5377 194.227C39.4256 194.531 39.3478 194.847 39.3059 195.168C39.3079 195.232 39.3282 195.293 39.3643 195.346C39.4004 195.398 39.4508 195.439 39.5095 195.463C39.5682 195.488 39.6326 195.495 39.6952 195.484C39.7578 195.472 39.8158 195.443 39.8624 195.4C40.0488 195.181 40.2131 194.943 40.3527 194.691C40.5325 194.432 40.6963 194.162 40.843 193.883C41.1147 193.333 41.4062 192.796 41.7242 192.273C42.3457 191.223 43.0456 190.222 43.8179 189.278C43.9088 189.181 43.9593 189.053 43.9593 188.92C43.9593 188.787 43.9088 188.66 43.8179 188.563C43.7711 188.515 43.7154 188.478 43.654 188.452C43.5926 188.427 43.5267 188.413 43.4601 188.413C43.3936 188.413 43.3277 188.427 43.2663 188.452C43.2049 188.478 43.1492 188.515 43.1024 188.563Z"
              fill="#555555"
            />
            <path
              d="M45.7659 197.315C46.8128 195.831 47.906 194.373 48.9197 192.869C49.4232 192.127 49.9268 191.398 50.4635 190.683C50.7285 190.318 51.0002 189.96 51.2652 189.603C51.5636 189.322 51.7516 188.943 51.7953 188.536C51.7953 188.504 51.7881 188.473 51.7742 188.445C51.7603 188.417 51.7401 188.392 51.7151 188.373C51.6901 188.354 51.661 188.34 51.6301 188.334C51.5992 188.328 51.5673 188.329 51.5368 188.337C51.1459 188.45 50.9935 188.702 50.7617 189L49.907 190.139C49.3438 190.901 48.7607 191.637 48.1644 192.372C47.0248 193.803 45.9647 195.301 44.8913 196.785C44.5136 197.315 45.3949 197.825 45.7659 197.295V197.315Z"
              fill="#555555"
            />
            <path
              d="M59.1697 187.065C58.6926 187.648 58.1427 188.158 57.6656 188.735C57.1886 189.311 56.7579 189.841 56.3405 190.418C55.9231 190.994 55.4261 191.571 55.0153 192.187C54.6016 192.825 54.2298 193.488 53.9022 194.174C53.8852 194.205 53.8799 194.241 53.8874 194.276C53.8949 194.31 53.9146 194.341 53.943 194.362C53.9713 194.383 54.0062 194.393 54.0414 194.39C54.0765 194.387 54.1095 194.372 54.1342 194.347C54.6727 193.826 55.1814 193.275 55.6581 192.697C56.1152 192.14 56.4995 191.518 56.9103 190.935C57.3211 190.351 57.7319 189.722 58.1294 189.099C58.527 188.476 58.8516 187.774 59.2624 187.111C59.2624 187.058 59.2161 186.999 59.1763 187.045L59.1697 187.065Z"
              fill="#555555"
            />
            <path
              d="M67.7499 185.978C66.2621 187.593 64.931 189.346 63.7745 191.213C63.1981 192.154 62.8072 193.2 62.191 194.095C61.8597 194.579 61.5284 195.049 61.1574 195.506C60.8033 195.847 60.5314 196.264 60.3623 196.725C60.3623 196.811 60.4219 196.917 60.5146 196.884C61.3561 196.527 61.8862 195.466 62.4096 194.751C62.7542 194.28 63.0722 193.777 63.4366 193.34C63.816 192.937 64.1659 192.507 64.4835 192.054C65.6082 190.102 66.8356 188.211 68.1607 186.389C68.386 186.104 68.0083 185.727 67.7499 185.978Z"
              fill="#555555"
            />
            <path
              d="M77.6354 184.892C76.2639 186.701 74.9056 188.516 73.66 190.411C73.0297 191.269 72.4797 192.182 72.0169 193.141C71.7363 193.679 71.3865 194.178 70.9766 194.625C70.6068 195.091 70.264 195.578 69.9496 196.083C69.7774 196.374 70.208 196.745 70.4333 196.454C70.7712 196.03 71.0628 195.559 71.3543 195.129C71.6498 194.552 72.0075 194.01 72.421 193.512C73.1555 192.734 73.8206 191.894 74.4087 191.001C75.7339 189.139 76.9994 187.211 78.2119 185.256C78.457 184.872 77.8806 184.594 77.6222 184.912L77.6354 184.892Z"
              fill="#555555"
            />
            <path
              d="M86.123 183.494C84.9436 185.276 84.0027 187.211 82.9029 189.046C82.3596 189.954 81.803 190.842 81.2531 191.743C80.6519 192.606 80.135 193.524 79.7093 194.486C79.5834 194.83 80.0472 195.029 80.2857 194.817C81.022 194.056 81.6567 193.203 82.174 192.28C82.7571 191.365 83.3004 190.424 83.8239 189.47C84.9184 187.633 85.8368 185.696 86.5669 183.686C86.6596 183.408 86.2687 183.275 86.123 183.494Z"
              fill="#555555"
            />
            <path
              d="M94.8689 182.023C93.7889 183.858 92.7884 185.733 91.7217 187.582C91.1982 188.49 90.6284 189.371 90.1183 190.292C89.8599 190.762 89.6081 191.239 89.3165 191.696C89.0191 192.047 88.8181 192.47 88.7335 192.922C88.736 192.968 88.7499 193.012 88.7739 193.05C88.7979 193.089 88.8312 193.121 88.8708 193.143C88.9103 193.166 88.9549 193.178 89.0004 193.179C89.0458 193.179 89.0907 193.169 89.131 193.147C89.5113 192.882 89.8152 192.521 90.0122 192.101C90.3104 191.65 90.635 191.219 90.9531 190.775C91.556 189.921 92.0728 189 92.6095 188.125C93.7195 186.304 94.7132 184.414 95.5845 182.467C95.7965 181.99 95.1471 181.572 94.8689 182.049V182.023Z"
              fill="#555555"
            />
            <path
              d="M103.244 179.929C102.363 181.678 101.607 183.494 100.786 185.269C100.375 186.164 99.9441 187.052 99.5002 187.92C98.9826 188.727 98.577 189.601 98.2943 190.517C98.2739 190.594 98.2795 190.676 98.3103 190.75C98.3411 190.824 98.3954 190.886 98.4648 190.926C98.5341 190.966 98.6147 190.982 98.6941 190.971C98.7734 190.961 98.8472 190.925 98.9039 190.868C99.5339 190.15 100.038 189.33 100.395 188.443C100.858 187.56 101.3 186.65 101.72 185.713C102.594 183.941 103.315 182.097 103.873 180.201C103.986 179.81 103.403 179.538 103.211 179.923L103.244 179.929Z"
              fill="#555555"
            />
            <path
              d="M110.645 178.803C109.819 180.539 108.948 182.25 108.034 183.938C107.12 185.627 106.119 187.251 105.278 189.006C105.238 189.1 105.233 189.205 105.265 189.302C105.297 189.398 105.363 189.48 105.451 189.531C105.539 189.582 105.643 189.6 105.743 189.58C105.842 189.56 105.932 189.505 105.993 189.424C107.03 187.802 107.954 186.111 108.756 184.362C109.596 182.626 110.402 180.877 111.175 179.114C111.327 178.757 110.817 178.452 110.645 178.803Z"
              fill="#555555"
            />
            <path
              d="M123.3 175.702C122.551 177.392 121.776 179.075 121.034 180.771C120.663 181.619 120.298 182.474 119.934 183.328C119.486 184.103 119.24 184.978 119.218 185.872C119.216 185.95 119.238 186.027 119.281 186.092C119.324 186.157 119.386 186.207 119.459 186.235C119.531 186.263 119.611 186.269 119.686 186.25C119.762 186.231 119.83 186.19 119.881 186.131C120.48 185.474 120.903 184.676 121.113 183.812C121.438 182.944 121.776 182.069 122.074 181.201C122.737 179.452 123.3 177.696 123.922 175.947C124.048 175.609 123.479 175.358 123.326 175.702H123.3Z"
              fill="#555555"
            />
            <path
              d="M117.019 177.359C115.905 179.174 114.865 180.996 113.871 182.878C113.374 183.819 112.864 184.746 112.361 185.687C111.838 186.543 111.506 187.501 111.387 188.496C111.387 188.552 111.403 188.606 111.431 188.654C111.459 188.702 111.499 188.741 111.547 188.769C111.596 188.796 111.65 188.811 111.706 188.811C111.761 188.81 111.816 188.796 111.864 188.768C112.633 188.142 113.245 187.346 113.653 186.442C114.156 185.462 114.633 184.455 115.11 183.481C116.037 181.564 116.84 179.59 117.515 177.57C117.615 177.272 117.171 177.1 117.019 177.359Z"
              fill="#555555"
            />
            <path
              d="M132.867 172.793C132.006 174.55 131.258 176.361 130.628 178.213C129.965 180.201 129.117 182.043 128.309 183.931C128.269 184.031 128.421 184.13 128.468 184.017C129.303 182.175 130.078 180.28 131.078 178.518C131.582 177.63 132.039 176.749 132.463 175.821C132.887 174.894 133.245 174.019 133.616 173.105C133.788 172.681 133.066 172.376 132.867 172.793Z"
              fill="#555555"
            />
            <path
              d="M141.534 169.739C140.659 171.667 140.049 173.714 139.287 175.702C138.89 176.729 138.466 177.749 138.022 178.75C137.81 179.22 137.585 179.684 137.359 180.154C137.096 180.581 136.954 181.071 136.949 181.572C136.948 181.612 136.958 181.652 136.977 181.686C136.997 181.721 137.025 181.75 137.06 181.77C137.094 181.791 137.133 181.801 137.173 181.801C137.213 181.802 137.252 181.791 137.287 181.771C138.082 181.294 138.426 180.015 138.784 179.207C139.226 178.191 139.647 177.171 140.049 176.146C140.899 174.127 141.496 172.011 141.825 169.845C141.825 169.686 141.587 169.62 141.52 169.765L141.534 169.739Z"
              fill="#555555"
            />
            <path
              d="M148.722 167.122C147.92 169.072 147.219 171.062 146.622 173.085C146.337 174.059 146.059 175.073 145.734 176L145.198 177.551C144.992 178.013 144.873 178.509 144.846 179.015C144.846 179.234 145.158 179.406 145.323 179.214C145.926 178.478 146.112 177.339 146.41 176.457C146.748 175.45 147.132 174.47 147.51 173.482C148.271 171.473 148.91 169.42 149.425 167.334C149.446 167.242 149.43 167.146 149.382 167.066C149.334 166.985 149.256 166.926 149.166 166.902C149.075 166.877 148.978 166.888 148.896 166.933C148.813 166.977 148.751 167.052 148.722 167.142V167.122Z"
              fill="#555555"
            />
            <path
              d="M159.602 162.086C158.419 164.166 157.426 166.348 156.634 168.606C156.192 169.701 155.768 170.806 155.361 171.919C154.869 173.028 154.518 174.194 154.315 175.391C154.275 175.801 154.864 175.901 155.057 175.589C155.593 174.591 156.021 173.538 156.335 172.449C156.746 171.3 157.172 170.161 157.614 169.03C158.469 166.824 159.549 164.644 160.211 162.371C160.227 162.295 160.215 162.216 160.179 162.147C160.143 162.078 160.084 162.024 160.012 161.993C159.94 161.963 159.86 161.958 159.786 161.98C159.711 162.002 159.646 162.049 159.602 162.113V162.086Z"
              fill="#555555"
            />
            <path
              d="M160.748 172.906C161.212 171.932 161.696 170.965 162.073 169.964C162.451 168.964 162.848 167.758 163.286 166.651C163.723 165.545 164.187 164.452 164.657 163.339C164.856 162.875 165.048 162.404 165.234 161.941C165.524 161.404 165.788 160.854 166.022 160.291C166.039 160.233 166.033 160.171 166.007 160.116C165.981 160.062 165.936 160.02 165.88 159.997C165.824 159.974 165.762 159.972 165.705 159.992C165.648 160.012 165.601 160.052 165.572 160.105C165.319 160.612 165.097 161.134 164.909 161.669C164.671 162.172 164.412 162.676 164.18 163.193C163.697 164.253 163.219 165.326 162.756 166.393C162.292 167.46 161.808 168.381 161.384 169.408C160.967 170.476 160.609 171.567 160.311 172.674C160.238 172.919 160.629 173.098 160.741 172.853L160.748 172.906Z"
              fill="#555555"
            />
            <path
              d="M171.601 156.898C171.005 157.992 170.362 159.019 169.858 160.165C169.401 161.205 168.951 162.258 168.533 163.332C167.705 165.657 166.983 168.023 166.254 170.382C166.122 170.819 166.797 171.004 166.917 170.574C167.645 168.301 168.328 166.009 169.096 163.749C169.79 161.429 170.677 159.17 171.747 156.998C171.806 156.885 171.634 156.786 171.574 156.898H171.601Z"
              fill="#555555"
            />
            <path
              d="M180.075 152.353C179.174 154.566 178.366 156.819 177.531 159.065C177.079 160.177 176.692 161.314 176.371 162.471C176.232 163.06 176.12 163.656 175.987 164.246C175.826 164.745 175.726 165.261 175.689 165.783C175.689 165.827 175.703 165.87 175.73 165.905C175.757 165.939 175.794 165.964 175.836 165.976C175.879 165.987 175.924 165.984 175.964 165.967C176.004 165.95 176.038 165.921 176.06 165.883C176.24 165.433 176.386 164.97 176.497 164.498C176.69 163.902 176.941 163.332 177.16 162.755C177.63 161.636 177.988 160.456 178.406 159.31C179.318 157.104 180.036 154.823 180.552 152.492C180.571 152.425 180.562 152.354 180.528 152.294C180.494 152.234 180.437 152.189 180.37 152.171C180.303 152.152 180.232 152.161 180.172 152.195C180.111 152.23 180.067 152.286 180.049 152.353H180.075Z"
              fill="#555555"
            />
            <path
              d="M187.436 147.722C186.951 148.771 186.537 149.851 186.197 150.955C185.853 152.121 185.641 153.307 185.363 154.493C185.084 155.679 184.846 156.859 184.528 158.025C184.369 158.608 184.216 159.191 184.064 159.774C183.866 160.204 183.797 160.683 183.865 161.152C183.873 161.179 183.888 161.203 183.908 161.223C183.929 161.243 183.953 161.257 183.981 161.264C184.008 161.271 184.036 161.271 184.064 161.265C184.091 161.258 184.116 161.244 184.137 161.225C184.422 160.839 184.587 160.379 184.614 159.9L185.051 158.137C185.329 157.011 185.714 155.904 186.065 154.824C186.416 153.744 186.853 152.625 187.191 151.512C187.534 150.351 187.81 149.172 188.019 147.98C188.079 147.656 187.595 147.384 187.436 147.735V147.722Z"
              fill="#555555"
            />
            <path
              d="M194.579 144.078C193.658 146.071 192.902 148.136 192.319 150.253C191.993 151.335 191.688 152.419 191.405 153.506C191.052 154.53 190.888 155.61 190.921 156.693C190.922 156.752 190.942 156.809 190.978 156.856C191.014 156.903 191.064 156.937 191.121 156.952C191.178 156.968 191.238 156.965 191.293 156.943C191.348 156.922 191.394 156.882 191.425 156.832C191.908 155.872 192.24 154.845 192.412 153.784C192.657 152.724 192.929 151.677 193.214 150.624C193.79 148.497 194.466 146.383 194.943 144.23C194.99 144.025 194.685 143.866 194.579 144.078Z"
              fill="#555555"
            />
            <path
              d="M200.502 140.4C199.719 142.718 199.115 145.093 198.693 147.503C198.442 148.649 198.183 149.802 197.951 150.955C197.719 152.108 197.335 153.301 197.527 154.414C197.587 154.752 198.057 154.758 198.223 154.5C198.833 153.526 198.939 152.128 199.177 151.008C199.416 149.888 199.654 148.702 199.899 147.549C200.503 145.231 200.972 142.879 201.304 140.506C201.35 140.016 200.641 140.009 200.502 140.4Z"
              fill="#555555"
            />
            <path
              d="M207.883 134.55C207.287 136.591 206.691 138.651 206.253 140.732L205.591 143.746C205.3 144.712 205.188 145.722 205.259 146.728C205.299 146.953 205.604 146.953 205.71 146.788C206.148 145.917 206.424 144.974 206.525 144.005L207.188 140.864C207.612 138.81 207.89 136.717 208.195 134.636C208.206 134.595 208.201 134.551 208.18 134.513C208.158 134.476 208.123 134.449 208.082 134.437C208.041 134.426 207.997 134.431 207.959 134.452C207.922 134.474 207.895 134.509 207.883 134.55Z"
              fill="#555555"
            />
            <path
              d="M214.575 129.74C214.025 132.132 213.754 134.583 213.316 136.995C213.104 138.167 212.886 139.334 212.654 140.493C212.508 141.156 212.442 141.759 212.309 142.388C212.144 142.931 212.039 143.491 211.998 144.058C212 144.096 212.015 144.133 212.039 144.163C212.064 144.192 212.097 144.214 212.134 144.224C212.171 144.234 212.21 144.233 212.246 144.22C212.283 144.206 212.314 144.182 212.336 144.151C212.605 143.65 212.806 143.115 212.932 142.56C213.144 141.951 213.376 141.368 213.542 140.738C213.846 139.546 214.131 138.346 214.357 137.134C214.874 134.725 215.097 132.262 215.019 129.799C215.019 129.561 214.635 129.481 214.575 129.74Z"
              fill="#555555"
            />
            <path
              d="M222.851 123.227C222.261 125.678 221.989 128.196 221.525 130.687C221.062 133.178 220.532 135.656 220.147 138.154C220.094 138.512 220.605 138.678 220.704 138.307C221.359 135.812 221.879 133.284 222.261 130.733C222.747 128.273 223.046 125.779 223.155 123.273C223.155 123.231 223.14 123.191 223.113 123.16C223.085 123.129 223.048 123.109 223.007 123.103C222.965 123.098 222.924 123.107 222.889 123.13C222.854 123.152 222.829 123.187 222.818 123.227H222.851Z"
              fill="#555555"
            />
            <path
              d="M229.987 116.024C229.182 118.141 228.63 120.345 228.343 122.59C228.191 123.677 228.098 124.77 228.025 125.864C227.959 126.851 227.767 127.997 228.171 128.925C228.197 128.97 228.235 129.008 228.28 129.034C228.326 129.06 228.377 129.074 228.43 129.074C228.482 129.074 228.533 129.06 228.579 129.034C228.624 129.008 228.662 128.97 228.688 128.925C229.132 128.017 229.013 126.851 229.079 125.864C229.145 124.876 229.278 123.697 229.403 122.61C229.662 120.424 229.993 118.251 230.271 116.064C230.271 115.892 230.04 115.892 229.987 116.024Z"
              fill="#555555"
            />
            <path
              d="M234.439 110.3C234.298 111.652 234.181 113.003 234.088 114.355C234.041 115.017 233.975 115.68 233.942 116.343C233.942 116.661 233.896 117.005 233.889 117.297C233.882 117.588 233.949 118.032 233.969 118.403C233.969 118.569 234.227 118.622 234.267 118.443C234.346 118.112 234.452 117.78 234.518 117.456C234.568 117.139 234.601 116.821 234.618 116.502C234.691 115.839 234.724 115.123 234.764 114.434C234.843 113.056 234.863 111.685 234.836 110.3C234.836 110.247 234.816 110.197 234.778 110.159C234.741 110.122 234.69 110.101 234.638 110.101C234.585 110.101 234.534 110.122 234.497 110.159C234.46 110.197 234.439 110.247 234.439 110.3Z"
              fill="#555555"
            />
            <path
              d="M220.379 58.54C220.187 59.779 219.982 61.0247 219.829 62.2703C219.763 62.8666 219.75 63.4761 219.73 64.0725C219.628 64.6909 219.696 65.3256 219.929 65.9078C219.954 65.9475 219.988 65.9802 220.03 66.0028C220.071 66.0255 220.117 66.0374 220.164 66.0374C220.211 66.0374 220.257 66.0255 220.298 66.0028C220.339 65.9802 220.374 65.9475 220.399 65.9078C220.617 65.3729 220.694 64.7914 220.624 64.2182C220.624 63.5556 220.624 62.9461 220.624 62.31C220.624 61.0577 220.624 59.8254 220.664 58.5797C220.664 58.4075 220.386 58.3678 220.359 58.54H220.379Z"
              fill="#555555"
            />
            <path
              d="M223.845 52.8154C223.585 54.4741 223.474 56.1526 223.513 57.831C223.513 58.6725 223.513 59.514 223.513 60.3621C223.417 61.1862 223.482 62.0211 223.705 62.8202C223.705 62.9063 223.871 62.9527 223.917 62.8202C224.185 62.0528 224.295 61.2393 224.242 60.4283L224.361 57.9039C224.484 56.1998 224.457 54.4883 224.282 52.7889C224.27 52.7417 224.243 52.6998 224.204 52.6698C224.166 52.6399 224.118 52.6236 224.07 52.6236C224.021 52.6236 223.974 52.6399 223.935 52.6698C223.897 52.6998 223.87 52.7417 223.858 52.7889L223.845 52.8154Z"
              fill="#555555"
            />
            <path
              d="M228.171 48.2304C228.019 49.052 227.88 49.8868 227.807 50.7283C227.767 51.1457 227.754 51.5698 227.74 51.9872C227.735 52.4065 227.766 52.8255 227.833 53.2394C227.833 53.4382 228.131 53.3587 228.158 53.1996C228.357 51.5631 228.324 49.8868 228.509 48.2702C228.509 48.0847 228.211 48.0382 228.171 48.2304Z"
              fill="#555555"
            />
            <path
              d="M232.597 44.5134C232.517 45.3151 232.378 46.1102 232.332 46.9185C232.286 47.7269 232.239 48.4093 232.18 49.1514C232.12 49.8935 232.021 50.6355 231.948 51.3842C231.948 51.7752 231.901 52.1794 231.888 52.5769C231.859 52.7202 231.86 52.8681 231.892 53.0109C231.924 53.1537 231.986 53.2881 232.074 53.4051C232.108 53.4309 232.15 53.4448 232.193 53.4448C232.236 53.4448 232.278 53.4309 232.312 53.4051C232.425 53.3164 232.518 53.2039 232.583 53.0758C232.648 52.9476 232.685 52.8068 232.69 52.663C232.763 52.2854 232.842 51.9076 232.889 51.5234C232.988 50.7614 233.014 49.9796 233.054 49.211C233.094 48.4424 233.127 47.6672 233.147 46.892C233.139 46.0882 233.088 45.2853 232.995 44.4869C232.995 44.4342 232.974 44.3837 232.936 44.3464C232.899 44.3091 232.849 44.2882 232.796 44.2882C232.743 44.2882 232.693 44.3091 232.655 44.3464C232.618 44.3837 232.597 44.4342 232.597 44.4869V44.5134Z"
              fill="#555555"
            />
            <path
              d="M237.805 40.8759C237.731 41.7588 237.539 42.6279 237.235 43.46C236.977 44.2948 236.751 45.1362 236.572 45.9843C236.122 47.649 235.798 49.3457 235.605 51.0596L236.321 50.9669C236.287 50.7616 236.243 50.5581 236.188 50.3573C236.177 50.3149 236.152 50.2774 236.117 50.2507C236.083 50.2239 236.04 50.2094 235.996 50.2094C235.952 50.2094 235.91 50.2239 235.875 50.2507C235.84 50.2774 235.815 50.3149 235.804 50.3573C235.724 50.556 235.678 50.7615 235.618 50.9669C235.493 51.4174 236.235 51.6294 236.321 51.159C236.652 49.39 236.884 47.6143 237.301 45.8585C237.5 45.0104 237.725 44.1622 237.964 43.3208C238.274 42.5247 238.375 41.6624 238.255 40.8163C238.238 40.769 238.206 40.7289 238.163 40.7029C238.12 40.6768 238.069 40.6665 238.019 40.6735C237.969 40.6805 237.923 40.7045 237.889 40.7414C237.855 40.7782 237.835 40.8258 237.831 40.8759H237.805Z"
              fill="#555555"
            />
            <path
              d="M242.986 38.0467C242.423 39.7628 241.972 41.5186 241.422 43.2412C241.151 44.0761 240.873 44.9109 240.581 45.7391C240.289 46.5674 239.879 47.4817 239.634 48.3894H240.369C240.359 48.3125 240.359 48.2345 240.369 48.1575C240.372 48.0861 240.349 48.016 240.303 47.9612C240.257 47.9065 240.192 47.8709 240.121 47.8618C240.05 47.8526 239.978 47.8705 239.92 47.9117C239.862 47.953 239.821 48.0147 239.806 48.0847C239.774 48.1573 239.739 48.228 239.7 48.2966C239.475 48.7339 240.137 49.1183 240.362 48.681C240.724 47.8725 241.029 47.0401 241.277 46.1897C241.582 45.3085 241.866 44.4273 242.131 43.5395C242.692 41.7865 243.135 39.9979 243.457 38.1858C243.471 38.1296 243.463 38.0698 243.434 38.0195C243.405 37.9692 243.357 37.9325 243.301 37.9176C243.245 37.9026 243.185 37.9106 243.134 37.9398C243.084 37.969 243.047 38.017 243.032 38.0733L242.986 38.0467Z"
              fill="#555555"
            />
            <path
              d="M249.108 37.6094C248.372 39.0299 247.765 40.5134 247.293 42.042C247.048 42.804 246.816 43.5725 246.63 44.3411C246.383 45.1068 246.21 45.8945 246.113 46.6933C246.113 47.0511 246.657 47.1239 246.736 46.7794C246.783 46.6005 246.822 46.4282 246.862 46.2493C246.87 46.2152 246.866 46.1797 246.852 46.1477C246.838 46.1158 246.814 46.0891 246.784 46.0715C246.754 46.0538 246.719 46.0462 246.684 46.0495C246.649 46.0529 246.617 46.0672 246.591 46.0903L246.206 46.4679L246.736 46.7794C246.988 46.0572 247.101 45.2687 247.293 44.5267C247.485 43.7846 247.71 42.9829 247.955 42.2209C248.432 40.7235 249.022 39.2658 249.546 37.7883C249.632 37.5431 249.254 37.3907 249.128 37.6094H249.108Z"
              fill="#555555"
            />
            <path
              d="M253.62 35.953C253.017 37.6293 252.467 39.3189 251.997 41.0349C251.765 41.883 251.547 42.7311 251.335 43.5792L251.036 44.8182C250.88 45.2135 250.825 45.6418 250.877 46.0638C250.889 46.1052 250.911 46.1428 250.942 46.1729C250.973 46.203 251.011 46.2245 251.052 46.2352C251.094 46.2459 251.137 46.2455 251.179 46.2341C251.22 46.2226 251.258 46.2005 251.288 46.1698C251.508 45.8451 251.638 45.4679 251.666 45.0766L251.964 43.8376C252.176 42.963 252.401 42.0884 252.627 41.1873C253.09 39.4713 253.554 37.7552 254.058 36.0458C254.065 35.9901 254.052 35.9337 254.02 35.887C253.989 35.8403 253.942 35.8066 253.888 35.792C253.834 35.7775 253.776 35.7831 253.726 35.8078C253.675 35.8326 253.635 35.8748 253.614 35.9266L253.62 35.953Z"
              fill="#555555"
            />
            <path
              d="M258.437 32.342C257.96 34.237 257.43 36.112 256.966 38.0136L256.304 40.8163C256.191 41.2669 256.078 41.724 255.972 42.1812C255.805 42.6015 255.748 43.0577 255.807 43.5063C255.818 43.5458 255.839 43.5818 255.868 43.6106C255.897 43.6393 255.934 43.6597 255.973 43.6698C256.013 43.6799 256.055 43.6793 256.094 43.6681C256.134 43.6568 256.169 43.6353 256.198 43.6057C256.453 43.257 256.607 42.8441 256.642 42.413C256.754 41.9625 256.86 41.5054 256.966 41.0482L257.629 38.1594C258.073 36.2512 258.444 34.3364 258.875 32.4282C258.941 32.1499 258.517 32.0306 258.45 32.3089L258.437 32.342Z"
              fill="#555555"
            />
            <path
              d="M263.572 26.3061C263.168 28.4925 262.724 30.6724 262.287 32.8523C262.068 33.9124 261.849 34.9724 261.624 36.0325C261.34 37.1231 261.118 38.2292 260.962 39.3454C260.922 39.7363 261.492 39.7562 261.624 39.4315C261.955 38.3671 262.208 37.2798 262.379 36.1784C262.6 35.0829 262.821 33.9786 263.042 32.8655C263.44 30.7055 263.751 28.5389 264.029 26.3524C264.029 26.1338 263.678 26.0808 263.632 26.2994L263.572 26.3061Z"
              fill="#555555"
            />
            <path
              d="M266.938 20.9789C266.915 21.0937 266.884 21.2066 266.845 21.3169L266.786 21.8933C266.786 22.2511 266.739 22.6022 266.719 22.96L266.62 24.9477C266.567 26.3126 266.516 27.6798 266.468 29.0491C266.419 30.4184 266.375 31.7832 266.335 33.1437C266.335 33.8063 266.295 34.4688 266.282 35.1314C266.184 35.8073 266.218 36.4958 266.382 37.1589C266.448 37.3179 266.693 37.404 266.786 37.2119C267.011 36.4881 267.094 35.7277 267.031 34.9724C267.031 34.1508 267.09 33.3292 267.117 32.5077L267.256 27.5914C267.302 25.9482 267.329 24.2786 267.336 22.6685C267.336 22.2909 267.336 21.9066 267.336 21.5223C267.336 21.3036 267.336 20.9259 267.117 20.8C266.898 20.6741 266.64 20.8663 266.766 21.0982C266.779 21.1186 266.8 21.1337 266.823 21.1408C266.847 21.1479 266.872 21.1467 266.894 21.1373C266.917 21.1279 266.936 21.111 266.947 21.0893C266.959 21.0677 266.963 21.0428 266.958 21.0187L266.938 20.9789Z"
              fill="#555555"
            />
          </svg>